<?xml version="1.0" standalone="no"?>
<!DOCTYPE svg PUBLIC "-//W3C//DTD SVG 20010904//EN"
 "http://www.w3.org/TR/2001/REC-SVG-20010904/DTD/svg10.dtd">
<svg version="1.0" xmlns="http://www.w3.org/2000/svg"
 width="1024.000000pt" height="1024.000000pt" viewBox="0 0 1024.000000 1024.000000"
 preserveAspectRatio="xMidYMid meet">
<metadata>
Created by potrace 1.16, written by Peter Selinger 2001-2019
</metadata>
<g transform="translate(0.000000,1024.000000) scale(0.100000,-0.100000)"
fill="#475BE8" stroke="none">
<path d="M2497 7244 c-10 -3 -17 -13 -15 -21 2 -11 24 -21 68 -29 36 -8 79
-19 95 -25 135 -54 395 -315 549 -553 176 -271 211 -345 367 -781 76 -211 135
-350 294 -685 116 -244 216 -458 332 -710 145 -316 171 -361 267 -475 81 -95
85 -103 26 -54 -72 60 -213 217 -298 332 -145 195 -244 353 -412 652 -254 455
-311 592 -468 1140 -45 154 -97 329 -117 389 -36 109 -109 276 -120 276 -3 0
1 -13 10 -30 8 -16 15 -32 15 -35 0 -3 0 -6 1 -7 0 -2 2 -10 4 -18 1 -8 19
-68 39 -132 19 -64 69 -253 110 -421 104 -422 167 -610 281 -836 60 -121 96
-203 86 -196 -13 7 -121 167 -185 274 -113 187 -177 329 -274 611 -95 277
-176 457 -292 649 -76 127 -169 256 -185 256 -6 0 -17 4 -25 10 -13 8 -13 7 0
-9 8 -10 26 -23 40 -28 14 -6 20 -12 13 -15 -7 -3 5 -29 33 -71 92 -136 263
-519 331 -737 58 -189 157 -464 194 -536 104 -208 558 -888 727 -1090 45 -53
156 -167 249 -254 272 -256 303 -287 303 -299 0 -6 -5 -3 -11 7 -6 9 -15 14
-21 11 -6 -4 -8 -2 -4 4 3 6 2 13 -3 16 -5 4 -12 2 -15 -3 -3 -4 45 -47 107
-94 108 -82 216 -184 274 -258 30 -39 58 -87 192 -333 47 -88 91 -161 96 -162
6 -2 53 78 106 178 l96 181 -62 131 c-34 72 -160 334 -280 581 -305 630 -440
916 -490 1035 -15 36 -54 124 -87 195 -92 198 -105 227 -256 560 -185 408
-188 416 -229 519 -46 119 -155 424 -238 671 -38 110 -71 203 -74 206 -10 11
-385 19 -401 9 -12 -8 -8 -17 26 -52 97 -102 174 -232 252 -428 65 -162 89
-243 161 -541 66 -271 97 -363 208 -609 41 -91 158 -351 259 -579 102 -227
232 -515 291 -640 58 -124 122 -264 143 -311 81 -181 136 -290 207 -408 41
-68 73 -125 70 -128 -2 -2 -26 21 -53 53 -27 32 -91 103 -142 157 -138 146
-192 226 -302 446 -131 262 -623 1301 -642 1355 -16 48 -22 101 -29 260 -9
223 -23 323 -75 529 -92 372 -208 613 -381 796 -51 55 -63 73 -54 84 9 11 -4
14 -72 19 -135 11 -209 9 -205 -5 3 -7 38 -31 79 -53 106 -57 253 -206 351
-355 161 -246 204 -365 298 -839 39 -197 50 -292 30 -246 -8 18 -136 373 -207
574 -42 119 -166 358 -239 461 -94 133 -202 259 -287 332 -39 35 -86 78 -105
95 l-34 33 -136 4 c-76 3 -145 3 -155 0z"/>
<path d="M3686 7226 c37 -126 276 -803 319 -906 58 -137 228 -515 381 -847 46
-100 131 -287 188 -415 126 -282 294 -635 639 -1341 l166 -339 179 359 c604
1205 1329 2619 1430 2789 l49 82 -171 5 c-94 3 -184 9 -201 15 -28 8 -25 10
35 16 74 9 214 53 292 92 29 15 119 68 199 119 275 175 447 259 597 291 l67
14 -125 -5 c-220 -8 -378 -64 -675 -239 -147 -86 -290 -146 -415 -173 -66 -14
-129 -18 -280 -18 -185 0 -200 1 -295 29 -219 63 -487 21 -586 -92 -17 -19
-28 -36 -26 -38 2 -2 20 3 40 11 89 37 224 10 396 -81 161 -86 227 -110 396
-145 77 -16 143 -29 146 -29 3 0 -22 -57 -56 -127 -34 -71 -156 -319 -270
-553 -184 -378 -270 -555 -537 -1112 -39 -82 -74 -148 -78 -148 -7 0 -26 39
-243 495 -121 256 -425 908 -437 940 -4 11 -50 108 -100 215 -96 203 -245 525
-331 715 -28 61 -87 184 -132 274 l-82 164 -243 2 c-241 1 -242 1 -236 -19z
m2523 -640 c155 -63 332 -83 461 -52 76 18 272 48 277 42 7 -7 -226 -67 -331
-85 -79 -13 -113 -24 -130 -40 -23 -22 -24 -22 -122 -6 -55 8 -112 18 -129 22
-29 7 -28 8 15 13 l45 5 -45 23 c-45 24 -110 79 -110 94 0 12 4 11 69 -16z"/>
<path d="M5885 7220 c4 -14 7 -25 8 -25 1 -1 29 -6 62 -13 33 -6 97 -30 143
-53 65 -33 98 -58 152 -116 67 -72 130 -176 130 -216 0 -19 5 -19 123 -15 179
8 310 54 554 194 290 166 416 199 801 211 208 6 224 7 237 26 8 11 12 24 9 29
-3 4 -505 7 -1115 5 l-1110 -2 6 -25z"/>
<path d="M7690 7021 c-124 -27 -231 -75 -355 -160 -60 -41 -144 -98 -186 -125
-116 -77 -117 -78 -72 -56 22 11 101 58 173 106 162 106 284 164 415 200 88
23 119 27 259 27 192 1 179 18 -19 23 -100 3 -149 0 -215 -15z"/>
<path d="M2831 6018 c0 -21 -5 -38 -11 -38 -26 0 0 -222 41 -345 66 -199 195
-411 453 -748 306 -398 498 -586 914 -890 73 -54 138 -94 144 -91 6 4 8 3 5
-4 -4 -5 15 -26 43 -46 27 -19 52 -31 55 -26 5 8 -12 24 -25 25 -3 0 -30 21
-60 46 -30 26 -93 79 -140 119 -136 115 -603 573 -729 715 -441 496 -650 874
-681 1235 -4 47 -8 68 -9 48z"/>
<path d="M2305 5945 c-16 -51 -11 -233 9 -317 37 -164 95 -267 216 -389 77
-78 177 -152 192 -143 4 3 -32 44 -80 92 -132 131 -224 278 -283 455 -25 73
-33 117 -38 212 -6 95 -9 114 -16 90z"/>
</g>
</svg>
